<svg xmlns="http://www.w3.org/2000/svg" xmlns:xlink="http://www.w3.org/1999/xlink" contentscripttype="application/ecmascript" contentstyletype="text/css" height="448px" preserveAspectRatio="none" style="width:311px;height:448px;" version="1.1" viewBox="0 0 311 448" width="311px" zoomAndPan="magnify"><defs><filter height="300%" id="f1ig5uffwvxmxh" width="300%" x="-1" y="-1"><feGaussianBlur result="blurOut" stdDeviation="2.0"></feGaussianBlur><feColorMatrix in="blurOut" result="blurOut2" type="matrix" values="0 0 0 0 0 0 0 0 0 0 0 0 0 0 0 0 0 0 .4 0"></feColorMatrix><feOffset dx="4.0" dy="4.0" in="blurOut2" result="blurOut3"></feOffset><feBlend in="SourceGraphic" in2="blurOut3" mode="normal"></feBlend></filter></defs><g><!--class 0--><a target="_top" xlink:actuate="onRequest" xlink:href="http://bigcat.unimaas.nl/recepient" xlink:show="new" xlink:title="http://bigcat.unimaas.nl/recepient" xlink:type="simple"><rect fill="#FEFECE" filter="url(#f1ig5uffwvxmxh)" height="123.2188" id="0" style="stroke: #A80036; stroke-width: 1.5;" width="156" x="80" y="167"></rect><ellipse cx="122" cy="183" fill="#FF7700" rx="11" ry="11" style="stroke: #A80036; stroke-width: 1.0;"></ellipse><path d="M121.4844,183.5625 Q119.625,182.8594 118.9688,182.0938 Q118.3281,181.3125 118.3281,180 Q118.3281,178.3125 119.4063,177.3438 Q120.4844,176.375 122.3594,176.375 Q123.2188,176.375 124.0625,176.5781 Q124.9219,176.7656 125.7656,177.1563 L125.7656,179.5469 Q124.9844,178.9844 124.1563,178.7031 Q123.3438,178.4063 122.5469,178.4063 Q121.6719,178.4063 121.1875,178.7656 Q120.7188,179.125 120.7188,179.7813 Q120.7188,180.2969 121.0625,180.6406 Q121.4063,180.9688 122.5,181.375 L123.5625,181.7813 Q125.0469,182.3281 125.75,183.2344 Q126.4688,184.1406 126.4688,185.5156 Q126.4688,187.3906 125.3594,188.3125 Q124.25,189.2344 122,189.2344 Q121.0781,189.2344 120.1563,189.0156 Q119.2344,188.7969 118.375,188.375 L118.375,185.8438 Q119.3438,186.5313 120.2656,186.875 Q121.1875,187.2188 122.0781,187.2188 Q122.9844,187.2188 123.4844,186.8125 Q123.9844,186.3906 123.9844,185.6563 Q123.9844,185.0938 123.6406,184.6875 Q123.3125,184.2656 122.6875,184.0156 L121.4844,183.5625 Z "></path><text fill="#000000" font-family="sans-serif" font-size="12" lengthAdjust="spacingAndGlyphs" textLength="64" x="142" y="187.1543">:recepient</text><line style="stroke: #A80036; stroke-width: 1.5;" x1="81" x2="235" y1="199" y2="199"></line></a><a target="_top" xlink:actuate="onRequest" xlink:href="http://www.wikidata.org/prop/direct/P166" xlink:show="new" xlink:title="http://www.wikidata.org/prop/direct/P166" xlink:type="simple"><text fill="#0000FF" font-family="sans-serif" font-size="11" lengthAdjust="spacingAndGlyphs" text-decoration="underline" textLength="52" x="86" y="213.2104">wdt:P166</text><line style="stroke: #0000FF; stroke-width: 1.0;" x1="86" x2="138" y1="215.2104" y2="215.2104"></line></a><text fill="#000000" font-family="sans-serif" font-size="11" lengthAdjust="spacingAndGlyphs" textLength="12" x="142" y="213.2104">: [</text><a target="_top" xlink:actuate="onRequest" xlink:href="http://www.wikidata.org/entity/Q35637" xlink:show="new" xlink:title="http://www.wikidata.org/entity/Q35637" xlink:type="simple"><text fill="#0000FF" font-family="sans-serif" font-size="11" lengthAdjust="spacingAndGlyphs" text-decoration="underline" textLength="64" x="158" y="213.2104">wd:Q35637</text><line style="stroke: #0000FF; stroke-width: 1.0;" x1="158" x2="222" y1="215.2104" y2="215.2104"></line></a><text fill="#000000" font-family="sans-serif" font-size="11" lengthAdjust="spacingAndGlyphs" textLength="4" x="226" y="213.2104">]</text><line style="stroke: #A80036; stroke-width: 1.0;" x1="81" x2="235" y1="219.8047" y2="219.8047"></line><a target="_top" xlink:actuate="onRequest" xlink:href="http://www.wikidata.org/prop/direct/P166" xlink:show="new" xlink:title="http://www.wikidata.org/prop/direct/P166" xlink:type="simple"><text fill="#0000FF" font-family="sans-serif" font-size="11" lengthAdjust="spacingAndGlyphs" text-decoration="underline" textLength="52" x="86" y="234.0151">wdt:P166</text><line style="stroke: #0000FF; stroke-width: 1.0;" x1="86" x2="138" y1="236.0151" y2="236.0151"></line></a><text fill="#000000" font-family="sans-serif" font-size="11" lengthAdjust="spacingAndGlyphs" textLength="34" x="142" y="234.0151">: IRI +</text><line style="stroke: #A80036; stroke-width: 1.0;" x1="81" x2="235" y1="240.6094" y2="240.6094"></line><a target="_top" xlink:actuate="onRequest" xlink:href="http://www.wikidata.org/prop/direct/P21" xlink:show="new" xlink:title="http://www.wikidata.org/prop/direct/P21" xlink:type="simple"><text fill="#0000FF" font-family="sans-serif" font-size="11" lengthAdjust="spacingAndGlyphs" text-decoration="underline" textLength="45" x="86" y="254.8198">wdt:P21</text><line style="stroke: #0000FF; stroke-width: 1.0;" x1="86" x2="131" y1="256.8198" y2="256.8198"></line></a><text fill="#000000" font-family="sans-serif" font-size="11" lengthAdjust="spacingAndGlyphs" textLength="31" x="135" y="254.8198">: IRI *</text><line style="stroke: #A80036; stroke-width: 1.0;" x1="81" x2="235" y1="261.4141" y2="261.4141"></line><a target="_top" xlink:actuate="onRequest" xlink:href="http://www.wikidata.org/prop/direct/P18" xlink:show="new" xlink:title="http://www.wikidata.org/prop/direct/P18" xlink:type="simple"><text fill="#0000FF" font-family="sans-serif" font-size="11" lengthAdjust="spacingAndGlyphs" text-decoration="underline" textLength="45" x="86" y="275.6245">wdt:P18</text><line style="stroke: #0000FF; stroke-width: 1.0;" x1="86" x2="131" y1="277.6245" y2="277.6245"></line></a><text fill="#000000" font-family="sans-serif" font-size="11" lengthAdjust="spacingAndGlyphs" textLength="22" x="135" y="275.6245">: . *</text><line style="stroke: #A80036; stroke-width: 1.0;" x1="81" x2="235" y1="282.2188" y2="282.2188"></line><!--class 2--><a target="_top" xlink:actuate="onRequest" xlink:href="http://bigcat.unimaas.nl/award_statement" xlink:show="new" xlink:title="http://bigcat.unimaas.nl/award_statement" xlink:type="simple"><rect fill="#FEFECE" filter="url(#f1ig5uffwvxmxh)" height="60.8047" id="2" style="stroke: #A80036; stroke-width: 1.5;" width="148" x="6" y="367"></rect><ellipse cx="22.35" cy="383" fill="#FF7700" rx="11" ry="11" style="stroke: #A80036; stroke-width: 1.0;"></ellipse><path d="M21.8344,383.5625 Q19.975,382.8594 19.3188,382.0938 Q18.6781,381.3125 18.6781,380 Q18.6781,378.3125 19.7563,377.3438 Q20.8344,376.375 22.7094,376.375 Q23.5688,376.375 24.4125,376.5781 Q25.2719,376.7656 26.1156,377.1563 L26.1156,379.5469 Q25.3344,378.9844 24.5063,378.7031 Q23.6938,378.4063 22.8969,378.4063 Q22.0219,378.4063 21.5375,378.7656 Q21.0688,379.125 21.0688,379.7813 Q21.0688,380.2969 21.4125,380.6406 Q21.7563,380.9688 22.85,381.375 L23.9125,381.7813 Q25.3969,382.3281 26.1,383.2344 Q26.8188,384.1406 26.8188,385.5156 Q26.8188,387.3906 25.7094,388.3125 Q24.6,389.2344 22.35,389.2344 Q21.4281,389.2344 20.5063,389.0156 Q19.5844,388.7969 18.725,388.375 L18.725,385.8438 Q19.6938,386.5313 20.6156,386.875 Q21.5375,387.2188 22.4281,387.2188 Q23.3344,387.2188 23.8344,386.8125 Q24.3344,386.3906 24.3344,385.6563 Q24.3344,385.0938 23.9906,384.6875 Q23.6625,384.2656 23.0375,384.0156 L21.8344,383.5625 Z "></path><text fill="#000000" font-family="sans-serif" font-size="12" lengthAdjust="spacingAndGlyphs" textLength="113" x="36.65" y="387.1543">:award_statement</text><line style="stroke: #A80036; stroke-width: 1.5;" x1="7" x2="153" y1="399" y2="399"></line><text fill="#000000" font-family="sans-serif" font-size="11" lengthAdjust="spacingAndGlyphs" textLength="136" x="12" y="413.2104">OneOf not implemented</text><line style="stroke: #A80036; stroke-width: 1.0;" x1="7" x2="153" y1="419.8047" y2="419.8047"></line></a><!--class 3--><a target="_top" xlink:actuate="onRequest" xlink:href="http://bigcat.unimaas.nl/publication" xlink:show="new" xlink:title="http://bigcat.unimaas.nl/publication" xlink:type="simple"><rect fill="#FEFECE" filter="url(#f1ig5uffwvxmxh)" height="81.6094" id="3" style="stroke: #A80036; stroke-width: 1.5;" width="268" x="24" y="8"></rect><ellipse cx="117.25" cy="24" fill="#FF7700" rx="11" ry="11" style="stroke: #A80036; stroke-width: 1.0;"></ellipse><path d="M116.7344,24.5625 Q114.875,23.8594 114.2188,23.0938 Q113.5781,22.3125 113.5781,21 Q113.5781,19.3125 114.6563,18.3438 Q115.7344,17.375 117.6094,17.375 Q118.4688,17.375 119.3125,17.5781 Q120.1719,17.7656 121.0156,18.1563 L121.0156,20.5469 Q120.2344,19.9844 119.4063,19.7031 Q118.5938,19.4063 117.7969,19.4063 Q116.9219,19.4063 116.4375,19.7656 Q115.9688,20.125 115.9688,20.7813 Q115.9688,21.2969 116.3125,21.6406 Q116.6563,21.9688 117.75,22.375 L118.8125,22.7813 Q120.2969,23.3281 121,24.2344 Q121.7188,25.1406 121.7188,26.5156 Q121.7188,28.3906 120.6094,29.3125 Q119.5,30.2344 117.25,30.2344 Q116.3281,30.2344 115.4063,30.0156 Q114.4844,29.7969 113.625,29.375 L113.625,26.8438 Q114.5938,27.5313 115.5156,27.875 Q116.4375,28.2188 117.3281,28.2188 Q118.2344,28.2188 118.7344,27.8125 Q119.2344,27.3906 119.2344,26.6563 Q119.2344,26.0938 118.8906,25.6875 Q118.5625,25.2656 117.9375,25.0156 L116.7344,24.5625 Z "></path><text fill="#000000" font-family="sans-serif" font-size="12" lengthAdjust="spacingAndGlyphs" textLength="73" x="137.75" y="28.1543">:publication</text><line style="stroke: #A80036; stroke-width: 1.5;" x1="25" x2="291" y1="40" y2="40"></line></a><a target="_top" xlink:actuate="onRequest" xlink:href="http://www.wikidata.org/prop/direct/P577" xlink:show="new" xlink:title="http://www.wikidata.org/prop/direct/P577" xlink:type="simple"><text fill="#0000FF" font-family="sans-serif" font-size="11" lengthAdjust="spacingAndGlyphs" text-decoration="underline" textLength="52" x="30" y="54.2104">wdt:P577</text><line style="stroke: #0000FF; stroke-width: 1.0;" x1="30" x2="82" y1="56.2104" y2="56.2104"></line></a><text fill="#000000" font-family="sans-serif" font-size="11" lengthAdjust="spacingAndGlyphs" textLength="4" x="86" y="54.2104">:</text><a target="_top" xlink:actuate="onRequest" xlink:href="http://www.w3.org/1999/02/22-rdf-syntax-ns#dateTime" xlink:show="new" xlink:title="http://www.w3.org/1999/02/22-rdf-syntax-ns#dateTime" xlink:type="simple"><text fill="#0000FF" font-family="sans-serif" font-size="11" lengthAdjust="spacingAndGlyphs" text-decoration="underline" textLength="73" x="94" y="54.2104">rdf:dateTime</text><line style="stroke: #0000FF; stroke-width: 1.0;" x1="94" x2="167" y1="56.2104" y2="56.2104"></line></a><text fill="#000000" font-family="sans-serif" font-size="11" lengthAdjust="spacingAndGlyphs" textLength="16" x="175" y="54.2104">OR</text><a target="_top" xlink:actuate="onRequest" xlink:href="http://www.w3.org/2001/XMLSchema#dateTime" xlink:show="new" xlink:title="http://www.w3.org/2001/XMLSchema#dateTime" xlink:type="simple"><text fill="#0000FF" font-family="sans-serif" font-size="11" lengthAdjust="spacingAndGlyphs" text-decoration="underline" textLength="77" x="195" y="54.2104">xsd:dateTime</text><line style="stroke: #0000FF; stroke-width: 1.0;" x1="195" x2="272" y1="56.2104" y2="56.2104"></line></a><text fill="#000000" font-family="sans-serif" font-size="11" lengthAdjust="spacingAndGlyphs" textLength="6" x="280" y="54.2104">*</text><line style="stroke: #A80036; stroke-width: 1.0;" x1="25" x2="291" y1="60.8047" y2="60.8047"></line><a target="_top" xlink:actuate="onRequest" xlink:href="http://www.wikidata.org/prop/direct/P921" xlink:show="new" xlink:title="http://www.wikidata.org/prop/direct/P921" xlink:type="simple"><text fill="#0000FF" font-family="sans-serif" font-size="11" lengthAdjust="spacingAndGlyphs" text-decoration="underline" textLength="52" x="30" y="75.0151">wdt:P921</text><line style="stroke: #0000FF; stroke-width: 1.0;" x1="30" x2="82" y1="77.0151" y2="77.0151"></line></a><text fill="#000000" font-family="sans-serif" font-size="11" lengthAdjust="spacingAndGlyphs" textLength="31" x="86" y="75.0151">: IRI *</text><line style="stroke: #A80036; stroke-width: 1.0;" x1="25" x2="291" y1="81.6094" y2="81.6094"></line><!--class 1--><a target="_top" xlink:actuate="onRequest" xlink:href="http://bigcat.unimaas.nl/location" xlink:show="new" xlink:title="http://bigcat.unimaas.nl/location" xlink:type="simple"><rect fill="#FEFECE" filter="url(#f1ig5uffwvxmxh)" height="60.8047" id="1" style="stroke: #A80036; stroke-width: 1.5;" width="93" x="189.5" y="367"></rect><ellipse cx="207.65" cy="383" fill="#FF7700" rx="11" ry="11" style="stroke: #A80036; stroke-width: 1.0;"></ellipse><path d="M207.1344,383.5625 Q205.275,382.8594 204.6188,382.0938 Q203.9781,381.3125 203.9781,380 Q203.9781,378.3125 205.0563,377.3438 Q206.1344,376.375 208.0094,376.375 Q208.8688,376.375 209.7125,376.5781 Q210.5719,376.7656 211.4156,377.1563 L211.4156,379.5469 Q210.6344,378.9844 209.8063,378.7031 Q208.9938,378.4063 208.1969,378.4063 Q207.3219,378.4063 206.8375,378.7656 Q206.3688,379.125 206.3688,379.7813 Q206.3688,380.2969 206.7125,380.6406 Q207.0563,380.9688 208.15,381.375 L209.2125,381.7813 Q210.6969,382.3281 211.4,383.2344 Q212.1188,384.1406 212.1188,385.5156 Q212.1188,387.3906 211.0094,388.3125 Q209.9,389.2344 207.65,389.2344 Q206.7281,389.2344 205.8063,389.0156 Q204.8844,388.7969 204.025,388.375 L204.025,385.8438 Q204.9938,386.5313 205.9156,386.875 Q206.8375,387.2188 207.7281,387.2188 Q208.6344,387.2188 209.1344,386.8125 Q209.6344,386.3906 209.6344,385.6563 Q209.6344,385.0938 209.2906,384.6875 Q208.9625,384.2656 208.3375,384.0156 L207.1344,383.5625 Z "></path><text fill="#000000" font-family="sans-serif" font-size="12" lengthAdjust="spacingAndGlyphs" textLength="54" x="222.35" y="387.1543">:location</text><line style="stroke: #A80036; stroke-width: 1.5;" x1="190.5" x2="281.5" y1="399" y2="399"></line></a><a target="_top" xlink:actuate="onRequest" xlink:href="http://www.wikidata.org/prop/direct/P625" xlink:show="new" xlink:title="http://www.wikidata.org/prop/direct/P625" xlink:type="simple"><text fill="#0000FF" font-family="sans-serif" font-size="11" lengthAdjust="spacingAndGlyphs" text-decoration="underline" textLength="52" x="195.5" y="413.2104">wdt:P625</text><line style="stroke: #0000FF; stroke-width: 1.0;" x1="195.5" x2="247.5" y1="415.2104" y2="415.2104"></line></a><text fill="#000000" font-family="sans-serif" font-size="11" lengthAdjust="spacingAndGlyphs" textLength="25" x="251.5" y="413.2104">: . +</text><line style="stroke: #A80036; stroke-width: 1.0;" x1="190.5" x2="281.5" y1="419.8047" y2="419.8047"></line><!--link 3 to 0--><path d="M158,90.277 C158,111.381 158,137.76 158,161.735 " fill="none" id="3-0" style="stroke: #A80036; stroke-width: 1.0;"></path><polygon fill="#A80036" points="158,166.812,162,157.812,158,161.812,154,157.812,158,166.812" style="stroke: #A80036; stroke-width: 1.0;"></polygon><a target="_top" xlink:actuate="onRequest" xlink:href="http://www.wikidata.org/prop/direct/P50" xlink:show="new" xlink:title="http://www.wikidata.org/prop/direct/P50" xlink:type="simple"><text fill="#0000FF" font-family="sans-serif" font-size="13" lengthAdjust="spacingAndGlyphs" text-decoration="underline" textLength="50" x="159" y="133.0669">wdt:P50</text><line style="stroke: #0000FF; stroke-width: 1.0;" x1="159" x2="209" y1="135.0669" y2="135.0669"></line></a><text fill="#000000" font-family="sans-serif" font-size="13" lengthAdjust="spacingAndGlyphs" textLength="11" x="146.3641" y="155.8741">+</text><!--link 0 to 2--><path d="M129.62,290.263 C118.281,314.54 105.6453,341.5927 95.9629,362.3231 " fill="none" id="0-2" style="stroke: #A80036; stroke-width: 1.0;"></path><polygon fill="#A80036" points="93.8185,366.9142,101.2514,360.4526,95.9345,362.384,94.0031,357.0671,93.8185,366.9142" style="stroke: #A80036; stroke-width: 1.0;"></polygon><a target="_top" xlink:actuate="onRequest" xlink:href="http://www.wikidata.org/prop/P166" xlink:show="new" xlink:title="http://www.wikidata.org/prop/P166" xlink:type="simple"><text fill="#0000FF" font-family="sans-serif" font-size="13" lengthAdjust="spacingAndGlyphs" text-decoration="underline" textLength="44" x="116" y="333.0669">p:P166</text><line style="stroke: #0000FF; stroke-width: 1.0;" x1="116" x2="160" y1="335.0669" y2="335.0669"></line></a><text fill="#000000" font-family="sans-serif" font-size="13" lengthAdjust="spacingAndGlyphs" textLength="11" x="84.5342" y="356.1597">+</text><!--link 0 to 1--><path d="M186.38,290.263 C197.719,314.54 210.355,341.5927 220.037,362.3231 " fill="none" id="0-1" style="stroke: #A80036; stroke-width: 1.0;"></path><polygon fill="#A80036" points="222.181,366.9142,221.9962,357.0671,220.0649,362.3841,214.748,360.4528,222.181,366.9142" style="stroke: #A80036; stroke-width: 1.0;"></polygon><a target="_top" xlink:actuate="onRequest" xlink:href="http://www.wikidata.org/prop/direct/P69" xlink:show="new" xlink:title="http://www.wikidata.org/prop/direct/P69" xlink:type="simple"><text fill="#0000FF" font-family="sans-serif" font-size="13" lengthAdjust="spacingAndGlyphs" text-decoration="underline" textLength="50" x="208" y="333.0669">wdt:P69</text><line style="stroke: #0000FF; stroke-width: 1.0;" x1="208" x2="258" y1="335.0669" y2="335.0669"></line></a><text fill="#000000" font-family="sans-serif" font-size="13" lengthAdjust="spacingAndGlyphs" textLength="11" x="207.1965" y="356.1597">+</text><text fill="#888888" font-family="sans-serif" font-size="10" lengthAdjust="spacingAndGlyphs" textLength="67" x="197" y="447.2822">Generated by</text><a target="_top" xlink:actuate="onRequest" xlink:href="http://rdfshape.weso.es" xlink:show="new" xlink:title="http://rdfshape.weso.es" xlink:type="simple"><text fill="#0000FF" font-family="sans-serif" font-size="10" lengthAdjust="spacingAndGlyphs" text-decoration="underline" textLength="43" x="267" y="447.2822">rdfshape</text><line style="stroke: #0000FF; stroke-width: 1.0;" x1="267" x2="310" y1="449.2822" y2="449.2822"></line></a><!--
@startuml
class ":recepient" as 0 <<(S,#FF7700)>> [[http://bigcat.unimaas.nl/recepient :recepient]] {
[[http://www.wikidata.org/prop/direct/P166 wdt:P166]] : [ [[http://www.wikidata.org/entity/Q35637 wd:Q35637]] ]  
- -
[[http://www.wikidata.org/prop/direct/P166 wdt:P166]] : IRI +
- -
[[http://www.wikidata.org/prop/direct/P21 wdt:P21]] : IRI *
- -
[[http://www.wikidata.org/prop/direct/P18 wdt:P18]] : . *
- -
}
class ":award_statement" as 2 <<(S,#FF7700)>> [[http://bigcat.unimaas.nl/award_statement :award_statement]] {
OneOf not implemented
- -
}
class ":publication" as 3 <<(S,#FF7700)>> [[http://bigcat.unimaas.nl/publication :publication]] {
[[http://www.wikidata.org/prop/direct/P577 wdt:P577]] : [[http://www.w3.org/1999/02/22-rdf-syntax-ns#dateTime rdf:dateTime]]  OR [[http://www.w3.org/2001/XMLSchema#dateTime xsd:dateTime]]  *
- -
[[http://www.wikidata.org/prop/direct/P921 wdt:P921]] : IRI *
- -
}
class ":location" as 1 <<(S,#FF7700)>> [[http://bigcat.unimaas.nl/location :location]] {
[[http://www.wikidata.org/prop/direct/P625 wdt:P625]] : . +
- -
}
3 - -> "+" 0 : [[http://www.wikidata.org/prop/direct/P50 wdt:P50]]
0 - -> "+" 2 : [[http://www.wikidata.org/prop/P166 p:P166]]
0 - -> "+" 1 : [[http://www.wikidata.org/prop/direct/P69 wdt:P69]]

right footer Generated by [[http://rdfshape.weso.es rdfshape]]
@enduml

PlantUML version 1.2017.12(Wed Apr 26 18:06:36 CEST 2017)
(GPL source distribution)
Java Runtime: Java(TM) SE Runtime Environment
JVM: Java HotSpot(TM) 64-Bit Server VM
Java Version: 12.0.2+10
Operating System: Linux
OS Version: 4.4.0-193-generic
Default Encoding: UTF-8
Language: es
Country: ES
--></g></svg>