<svg xmlns="http://www.w3.org/2000/svg" xmlns:xlink="http://www.w3.org/1999/xlink" contentscripttype="application/ecmascript" contentstyletype="text/css" height="752px" preserveAspectRatio="none" style="width:436px;height:752px;" version="1.1" viewBox="0 0 436 752" width="436px" zoomAndPan="magnify"><defs><filter height="300%" id="fjqz409vfegfa" width="300%" x="-1" y="-1"><feGaussianBlur result="blurOut" stdDeviation="2.0"></feGaussianBlur><feColorMatrix in="blurOut" result="blurOut2" type="matrix" values="0 0 0 0 0 0 0 0 0 0 0 0 0 0 0 0 0 0 .4 0"></feColorMatrix><feOffset dx="4.0" dy="4.0" in="blurOut2" result="blurOut3"></feOffset><feBlend in="SourceGraphic" in2="blurOut3" mode="normal"></feBlend></filter></defs><g><!--class 0--><a target="_top" xlink:actuate="onRequest" xlink:href="http://bigcat.unimaas.nl/citing_work" xlink:show="new" xlink:title="http://bigcat.unimaas.nl/citing_work" xlink:type="simple"><rect fill="#FEFECE" filter="url(#fjqz409vfegfa)" height="60.8047" id="0" style="stroke: #A80036; stroke-width: 1.5;" width="268" x="50" y="8"></rect><ellipse cx="143.25" cy="24" fill="#FF7700" rx="11" ry="11" style="stroke: #A80036; stroke-width: 1.0;"></ellipse><path d="M142.7344,24.5625 Q140.875,23.8594 140.2188,23.0938 Q139.5781,22.3125 139.5781,21 Q139.5781,19.3125 140.6563,18.3438 Q141.7344,17.375 143.6094,17.375 Q144.4688,17.375 145.3125,17.5781 Q146.1719,17.7656 147.0156,18.1563 L147.0156,20.5469 Q146.2344,19.9844 145.4063,19.7031 Q144.5938,19.4063 143.7969,19.4063 Q142.9219,19.4063 142.4375,19.7656 Q141.9688,20.125 141.9688,20.7813 Q141.9688,21.2969 142.3125,21.6406 Q142.6563,21.9688 143.75,22.375 L144.8125,22.7813 Q146.2969,23.3281 147,24.2344 Q147.7188,25.1406 147.7188,26.5156 Q147.7188,28.3906 146.6094,29.3125 Q145.5,30.2344 143.25,30.2344 Q142.3281,30.2344 141.4063,30.0156 Q140.4844,29.7969 139.625,29.375 L139.625,26.8438 Q140.5938,27.5313 141.5156,27.875 Q142.4375,28.2188 143.3281,28.2188 Q144.2344,28.2188 144.7344,27.8125 Q145.2344,27.3906 145.2344,26.6563 Q145.2344,26.0938 144.8906,25.6875 Q144.5625,25.2656 143.9375,25.0156 L142.7344,24.5625 Z "></path><text fill="#000000" font-family="sans-serif" font-size="12" lengthAdjust="spacingAndGlyphs" textLength="73" x="163.75" y="28.1543">:citing_work</text><line style="stroke: #A80036; stroke-width: 1.5;" x1="51" x2="317" y1="40" y2="40"></line></a><a target="_top" xlink:actuate="onRequest" xlink:href="http://www.wikidata.org/prop/direct/P577" xlink:show="new" xlink:title="http://www.wikidata.org/prop/direct/P577" xlink:type="simple"><text fill="#0000FF" font-family="sans-serif" font-size="11" lengthAdjust="spacingAndGlyphs" text-decoration="underline" textLength="52" x="56" y="54.2104">wdt:P577</text><line style="stroke: #0000FF; stroke-width: 1.0;" x1="56" x2="108" y1="56.2104" y2="56.2104"></line></a><text fill="#000000" font-family="sans-serif" font-size="11" lengthAdjust="spacingAndGlyphs" textLength="4" x="112" y="54.2104">:</text><a target="_top" xlink:actuate="onRequest" xlink:href="http://www.w3.org/1999/02/22-rdf-syntax-ns#dateTime" xlink:show="new" xlink:title="http://www.w3.org/1999/02/22-rdf-syntax-ns#dateTime" xlink:type="simple"><text fill="#0000FF" font-family="sans-serif" font-size="11" lengthAdjust="spacingAndGlyphs" text-decoration="underline" textLength="73" x="120" y="54.2104">rdf:dateTime</text><line style="stroke: #0000FF; stroke-width: 1.0;" x1="120" x2="193" y1="56.2104" y2="56.2104"></line></a><text fill="#000000" font-family="sans-serif" font-size="11" lengthAdjust="spacingAndGlyphs" textLength="16" x="201" y="54.2104">OR</text><a target="_top" xlink:actuate="onRequest" xlink:href="http://www.w3.org/2001/XMLSchema#dateTime" xlink:show="new" xlink:title="http://www.w3.org/2001/XMLSchema#dateTime" xlink:type="simple"><text fill="#0000FF" font-family="sans-serif" font-size="11" lengthAdjust="spacingAndGlyphs" text-decoration="underline" textLength="77" x="221" y="54.2104">xsd:dateTime</text><line style="stroke: #0000FF; stroke-width: 1.0;" x1="221" x2="298" y1="56.2104" y2="56.2104"></line></a><text fill="#000000" font-family="sans-serif" font-size="11" lengthAdjust="spacingAndGlyphs" textLength="6" x="306" y="54.2104">*</text><line style="stroke: #A80036; stroke-width: 1.0;" x1="51" x2="317" y1="60.8047" y2="60.8047"></line><!--class 1--><a target="_top" xlink:actuate="onRequest" xlink:href="http://bigcat.unimaas.nl/work" xlink:show="new" xlink:title="http://bigcat.unimaas.nl/work" xlink:type="simple"><rect fill="#FEFECE" filter="url(#fjqz409vfegfa)" height="123.2188" id="1" style="stroke: #A80036; stroke-width: 1.5;" width="356" x="6" y="146"></rect><ellipse cx="163.25" cy="162" fill="#FF7700" rx="11" ry="11" style="stroke: #A80036; stroke-width: 1.0;"></ellipse><path d="M162.7344,162.5625 Q160.875,161.8594 160.2188,161.0938 Q159.5781,160.3125 159.5781,159 Q159.5781,157.3125 160.6563,156.3438 Q161.7344,155.375 163.6094,155.375 Q164.4688,155.375 165.3125,155.5781 Q166.1719,155.7656 167.0156,156.1563 L167.0156,158.5469 Q166.2344,157.9844 165.4063,157.7031 Q164.5938,157.4063 163.7969,157.4063 Q162.9219,157.4063 162.4375,157.7656 Q161.9688,158.125 161.9688,158.7813 Q161.9688,159.2969 162.3125,159.6406 Q162.6563,159.9688 163.75,160.375 L164.8125,160.7813 Q166.2969,161.3281 167,162.2344 Q167.7188,163.1406 167.7188,164.5156 Q167.7188,166.3906 166.6094,167.3125 Q165.5,168.2344 163.25,168.2344 Q162.3281,168.2344 161.4063,168.0156 Q160.4844,167.7969 159.625,167.375 L159.625,164.8438 Q160.5938,165.5313 161.5156,165.875 Q162.4375,166.2188 163.3281,166.2188 Q164.2344,166.2188 164.7344,165.8125 Q165.2344,165.3906 165.2344,164.6563 Q165.2344,164.0938 164.8906,163.6875 Q164.5625,163.2656 163.9375,163.0156 L162.7344,162.5625 Z "></path><text fill="#000000" font-family="sans-serif" font-size="12" lengthAdjust="spacingAndGlyphs" textLength="33" x="183.75" y="166.1543">:work</text><line style="stroke: #A80036; stroke-width: 1.5;" x1="7" x2="361" y1="178" y2="178"></line></a><a target="_top" xlink:actuate="onRequest" xlink:href="http://www.wikidata.org/prop/direct/P31" xlink:show="new" xlink:title="http://www.wikidata.org/prop/direct/P31" xlink:type="simple"><text fill="#0000FF" font-family="sans-serif" font-size="11" lengthAdjust="spacingAndGlyphs" text-decoration="underline" textLength="45" x="12" y="192.2104">wdt:P31</text><line style="stroke: #0000FF; stroke-width: 1.0;" x1="12" x2="57" y1="194.2104" y2="194.2104"></line></a><text fill="#000000" font-family="sans-serif" font-size="11" lengthAdjust="spacingAndGlyphs" textLength="34" x="61" y="192.2104">: IRI +</text><line style="stroke: #A80036; stroke-width: 1.0;" x1="7" x2="361" y1="198.8047" y2="198.8047"></line><a target="_top" xlink:actuate="onRequest" xlink:href="http://www.wikidata.org/prop/direct/P921" xlink:show="new" xlink:title="http://www.wikidata.org/prop/direct/P921" xlink:type="simple"><text fill="#0000FF" font-family="sans-serif" font-size="11" lengthAdjust="spacingAndGlyphs" text-decoration="underline" textLength="52" x="12" y="213.0151">wdt:P921</text><line style="stroke: #0000FF; stroke-width: 1.0;" x1="12" x2="64" y1="215.0151" y2="215.0151"></line></a><text fill="#000000" font-family="sans-serif" font-size="11" lengthAdjust="spacingAndGlyphs" textLength="31" x="68" y="213.0151">: IRI *</text><line style="stroke: #A80036; stroke-width: 1.0;" x1="7" x2="361" y1="219.6094" y2="219.6094"></line><a target="_top" xlink:actuate="onRequest" xlink:href="http://www.wikidata.org/prop/direct/P1104" xlink:show="new" xlink:title="http://www.wikidata.org/prop/direct/P1104" xlink:type="simple"><text fill="#0000FF" font-family="sans-serif" font-size="11" lengthAdjust="spacingAndGlyphs" text-decoration="underline" textLength="59" x="12" y="233.8198">wdt:P1104</text><line style="stroke: #0000FF; stroke-width: 1.0;" x1="12" x2="71" y1="235.8198" y2="235.8198"></line></a><text fill="#000000" font-family="sans-serif" font-size="11" lengthAdjust="spacingAndGlyphs" textLength="4" x="75" y="233.8198">:</text><a target="_top" xlink:actuate="onRequest" xlink:href="http://www.w3.org/1999/02/22-rdf-syntax-ns#langString" xlink:show="new" xlink:title="http://www.w3.org/1999/02/22-rdf-syntax-ns#langString" xlink:type="simple"><text fill="#0000FF" font-family="sans-serif" font-size="11" lengthAdjust="spacingAndGlyphs" text-decoration="underline" textLength="78" x="83" y="233.8198">rdf:langString</text><line style="stroke: #0000FF; stroke-width: 1.0;" x1="83" x2="161" y1="235.8198" y2="235.8198"></line></a><text fill="#000000" font-family="sans-serif" font-size="11" lengthAdjust="spacingAndGlyphs" textLength="16" x="169" y="233.8198">OR</text><a target="_top" xlink:actuate="onRequest" xlink:href="http://www.w3.org/2001/XMLSchema#string" xlink:show="new" xlink:title="http://www.w3.org/2001/XMLSchema#string" xlink:type="simple"><text fill="#0000FF" font-family="sans-serif" font-size="11" lengthAdjust="spacingAndGlyphs" text-decoration="underline" textLength="57" x="189" y="233.8198">xsd:string</text><line style="stroke: #0000FF; stroke-width: 1.0;" x1="189" x2="246" y1="235.8198" y2="235.8198"></line></a><text fill="#000000" font-family="sans-serif" font-size="11" lengthAdjust="spacingAndGlyphs" textLength="16" x="254" y="233.8198">OR</text><a target="_top" xlink:actuate="onRequest" xlink:href="http://www.w3.org/2001/XMLSchema#decimal" xlink:show="new" xlink:title="http://www.w3.org/2001/XMLSchema#decimal" xlink:type="simple"><text fill="#0000FF" font-family="sans-serif" font-size="11" lengthAdjust="spacingAndGlyphs" text-decoration="underline" textLength="68" x="274" y="233.8198">xsd:decimal</text><line style="stroke: #0000FF; stroke-width: 1.0;" x1="274" x2="342" y1="235.8198" y2="235.8198"></line></a><text fill="#000000" font-family="sans-serif" font-size="11" lengthAdjust="spacingAndGlyphs" textLength="6" x="350" y="233.8198">*</text><line style="stroke: #A80036; stroke-width: 1.0;" x1="7" x2="361" y1="240.4141" y2="240.4141"></line><a target="_top" xlink:actuate="onRequest" xlink:href="http://www.wikidata.org/prop/direct/P577" xlink:show="new" xlink:title="http://www.wikidata.org/prop/direct/P577" xlink:type="simple"><text fill="#0000FF" font-family="sans-serif" font-size="11" lengthAdjust="spacingAndGlyphs" text-decoration="underline" textLength="52" x="12" y="254.6245">wdt:P577</text><line style="stroke: #0000FF; stroke-width: 1.0;" x1="12" x2="64" y1="256.6245" y2="256.6245"></line></a><text fill="#000000" font-family="sans-serif" font-size="11" lengthAdjust="spacingAndGlyphs" textLength="4" x="68" y="254.6245">:</text><a target="_top" xlink:actuate="onRequest" xlink:href="http://www.w3.org/1999/02/22-rdf-syntax-ns#dateTime" xlink:show="new" xlink:title="http://www.w3.org/1999/02/22-rdf-syntax-ns#dateTime" xlink:type="simple"><text fill="#0000FF" font-family="sans-serif" font-size="11" lengthAdjust="spacingAndGlyphs" text-decoration="underline" textLength="73" x="76" y="254.6245">rdf:dateTime</text><line style="stroke: #0000FF; stroke-width: 1.0;" x1="76" x2="149" y1="256.6245" y2="256.6245"></line></a><text fill="#000000" font-family="sans-serif" font-size="11" lengthAdjust="spacingAndGlyphs" textLength="16" x="157" y="254.6245">OR</text><a target="_top" xlink:actuate="onRequest" xlink:href="http://www.w3.org/2001/XMLSchema#dateTime" xlink:show="new" xlink:title="http://www.w3.org/2001/XMLSchema#dateTime" xlink:type="simple"><text fill="#0000FF" font-family="sans-serif" font-size="11" lengthAdjust="spacingAndGlyphs" text-decoration="underline" textLength="77" x="177" y="254.6245">xsd:dateTime</text><line style="stroke: #0000FF; stroke-width: 1.0;" x1="177" x2="254" y1="256.6245" y2="256.6245"></line></a><text fill="#000000" font-family="sans-serif" font-size="11" lengthAdjust="spacingAndGlyphs" textLength="6" x="262" y="254.6245">*</text><line style="stroke: #A80036; stroke-width: 1.0;" x1="7" x2="361" y1="261.2188" y2="261.2188"></line><!--class 2--><a target="_top" xlink:actuate="onRequest" xlink:href="http://bigcat.unimaas.nl/researcher" xlink:show="new" xlink:title="http://bigcat.unimaas.nl/researcher" xlink:type="simple"><rect fill="#FEFECE" filter="url(#fjqz409vfegfa)" height="123.2188" id="2" style="stroke: #A80036; stroke-width: 1.5;" width="255" x="56.5" y="346"></rect><ellipse cx="143.25" cy="362" fill="#FF7700" rx="11" ry="11" style="stroke: #A80036; stroke-width: 1.0;"></ellipse><path d="M142.7344,362.5625 Q140.875,361.8594 140.2188,361.0938 Q139.5781,360.3125 139.5781,359 Q139.5781,357.3125 140.6563,356.3438 Q141.7344,355.375 143.6094,355.375 Q144.4688,355.375 145.3125,355.5781 Q146.1719,355.7656 147.0156,356.1563 L147.0156,358.5469 Q146.2344,357.9844 145.4063,357.7031 Q144.5938,357.4063 143.7969,357.4063 Q142.9219,357.4063 142.4375,357.7656 Q141.9688,358.125 141.9688,358.7813 Q141.9688,359.2969 142.3125,359.6406 Q142.6563,359.9688 143.75,360.375 L144.8125,360.7813 Q146.2969,361.3281 147,362.2344 Q147.7188,363.1406 147.7188,364.5156 Q147.7188,366.3906 146.6094,367.3125 Q145.5,368.2344 143.25,368.2344 Q142.3281,368.2344 141.4063,368.0156 Q140.4844,367.7969 139.625,367.375 L139.625,364.8438 Q140.5938,365.5313 141.5156,365.875 Q142.4375,366.2188 143.3281,366.2188 Q144.2344,366.2188 144.7344,365.8125 Q145.2344,365.3906 145.2344,364.6563 Q145.2344,364.0938 144.8906,363.6875 Q144.5625,363.2656 143.9375,363.0156 L142.7344,362.5625 Z "></path><text fill="#000000" font-family="sans-serif" font-size="12" lengthAdjust="spacingAndGlyphs" textLength="73" x="163.75" y="366.1543">:researcher</text><line style="stroke: #A80036; stroke-width: 1.5;" x1="57.5" x2="310.5" y1="378" y2="378"></line></a><a target="_top" xlink:actuate="onRequest" xlink:href="http://www.w3.org/2000/01/rdf-schema#label" xlink:show="new" xlink:title="http://www.w3.org/2000/01/rdf-schema#label" xlink:type="simple"><text fill="#0000FF" font-family="sans-serif" font-size="11" lengthAdjust="spacingAndGlyphs" text-decoration="underline" textLength="54" x="62.5" y="392.2104">rdfs:label</text><line style="stroke: #0000FF; stroke-width: 1.0;" x1="62.5" x2="116.5" y1="394.2104" y2="394.2104"></line></a><text fill="#000000" font-family="sans-serif" font-size="11" lengthAdjust="spacingAndGlyphs" textLength="4" x="120.5" y="392.2104">:</text><a target="_top" xlink:actuate="onRequest" xlink:href="http://www.w3.org/1999/02/22-rdf-syntax-ns#langString" xlink:show="new" xlink:title="http://www.w3.org/1999/02/22-rdf-syntax-ns#langString" xlink:type="simple"><text fill="#0000FF" font-family="sans-serif" font-size="11" lengthAdjust="spacingAndGlyphs" text-decoration="underline" textLength="78" x="128.5" y="392.2104">rdf:langString</text><line style="stroke: #0000FF; stroke-width: 1.0;" x1="128.5" x2="206.5" y1="394.2104" y2="394.2104"></line></a><text fill="#000000" font-family="sans-serif" font-size="11" lengthAdjust="spacingAndGlyphs" textLength="16" x="214.5" y="392.2104">OR</text><a target="_top" xlink:actuate="onRequest" xlink:href="http://www.w3.org/2001/XMLSchema#string" xlink:show="new" xlink:title="http://www.w3.org/2001/XMLSchema#string" xlink:type="simple"><text fill="#0000FF" font-family="sans-serif" font-size="11" lengthAdjust="spacingAndGlyphs" text-decoration="underline" textLength="57" x="234.5" y="392.2104">xsd:string</text><line style="stroke: #0000FF; stroke-width: 1.0;" x1="234.5" x2="291.5" y1="394.2104" y2="394.2104"></line></a><text fill="#000000" font-family="sans-serif" font-size="11" lengthAdjust="spacingAndGlyphs" textLength="6" x="299.5" y="392.2104">*</text><line style="stroke: #A80036; stroke-width: 1.0;" x1="57.5" x2="310.5" y1="398.8047" y2="398.8047"></line><a target="_top" xlink:actuate="onRequest" xlink:href="http://www.wikidata.org/prop/direct/P496" xlink:show="new" xlink:title="http://www.wikidata.org/prop/direct/P496" xlink:type="simple"><text fill="#0000FF" font-family="sans-serif" font-size="11" lengthAdjust="spacingAndGlyphs" text-decoration="underline" textLength="52" x="62.5" y="413.0151">wdt:P496</text><line style="stroke: #0000FF; stroke-width: 1.0;" x1="62.5" x2="114.5" y1="415.0151" y2="415.0151"></line></a><text fill="#000000" font-family="sans-serif" font-size="11" lengthAdjust="spacingAndGlyphs" textLength="4" x="118.5" y="413.0151">:</text><a target="_top" xlink:actuate="onRequest" xlink:href="http://www.w3.org/1999/02/22-rdf-syntax-ns#langString" xlink:show="new" xlink:title="http://www.w3.org/1999/02/22-rdf-syntax-ns#langString" xlink:type="simple"><text fill="#0000FF" font-family="sans-serif" font-size="11" lengthAdjust="spacingAndGlyphs" text-decoration="underline" textLength="78" x="126.5" y="413.0151">rdf:langString</text><line style="stroke: #0000FF; stroke-width: 1.0;" x1="126.5" x2="204.5" y1="415.0151" y2="415.0151"></line></a><text fill="#000000" font-family="sans-serif" font-size="11" lengthAdjust="spacingAndGlyphs" textLength="16" x="212.5" y="413.0151">OR</text><a target="_top" xlink:actuate="onRequest" xlink:href="http://www.w3.org/2001/XMLSchema#string" xlink:show="new" xlink:title="http://www.w3.org/2001/XMLSchema#string" xlink:type="simple"><text fill="#0000FF" font-family="sans-serif" font-size="11" lengthAdjust="spacingAndGlyphs" text-decoration="underline" textLength="57" x="232.5" y="413.0151">xsd:string</text><line style="stroke: #0000FF; stroke-width: 1.0;" x1="232.5" x2="289.5" y1="415.0151" y2="415.0151"></line></a><text fill="#000000" font-family="sans-serif" font-size="11" lengthAdjust="spacingAndGlyphs" textLength="6" x="297.5" y="413.0151">*</text><line style="stroke: #A80036; stroke-width: 1.0;" x1="57.5" x2="310.5" y1="419.6094" y2="419.6094"></line><a target="_top" xlink:actuate="onRequest" xlink:href="http://www.wikidata.org/prop/direct/P166" xlink:show="new" xlink:title="http://www.wikidata.org/prop/direct/P166" xlink:type="simple"><text fill="#0000FF" font-family="sans-serif" font-size="11" lengthAdjust="spacingAndGlyphs" text-decoration="underline" textLength="52" x="62.5" y="433.8198">wdt:P166</text><line style="stroke: #0000FF; stroke-width: 1.0;" x1="62.5" x2="114.5" y1="435.8198" y2="435.8198"></line></a><text fill="#000000" font-family="sans-serif" font-size="11" lengthAdjust="spacingAndGlyphs" textLength="31" x="118.5" y="433.8198">: IRI *</text><line style="stroke: #A80036; stroke-width: 1.0;" x1="57.5" x2="310.5" y1="440.4141" y2="440.4141"></line><a target="_top" xlink:actuate="onRequest" xlink:href="http://www.wikidata.org/prop/direct/P21" xlink:show="new" xlink:title="http://www.wikidata.org/prop/direct/P21" xlink:type="simple"><text fill="#0000FF" font-family="sans-serif" font-size="11" lengthAdjust="spacingAndGlyphs" text-decoration="underline" textLength="45" x="62.5" y="454.6245">wdt:P21</text><line style="stroke: #0000FF; stroke-width: 1.0;" x1="62.5" x2="107.5" y1="456.6245" y2="456.6245"></line></a><text fill="#000000" font-family="sans-serif" font-size="11" lengthAdjust="spacingAndGlyphs" textLength="31" x="111.5" y="454.6245">: IRI *</text><line style="stroke: #A80036; stroke-width: 1.0;" x1="57.5" x2="310.5" y1="461.2188" y2="461.2188"></line><!--class 3--><a target="_top" xlink:actuate="onRequest" xlink:href="http://bigcat.unimaas.nl/organizationTemp" xlink:show="new" xlink:title="http://bigcat.unimaas.nl/organizationTemp" xlink:type="simple"><rect fill="#FEFECE" filter="url(#fjqz409vfegfa)" height="48" id="3" style="stroke: #A80036; stroke-width: 1.5;" width="147" x="110.5" y="546"></rect><ellipse cx="125.5" cy="562" fill="#FF7700" rx="11" ry="11" style="stroke: #A80036; stroke-width: 1.0;"></ellipse><path d="M124.9844,562.5625 Q123.125,561.8594 122.4688,561.0938 Q121.8281,560.3125 121.8281,559 Q121.8281,557.3125 122.9063,556.3438 Q123.9844,555.375 125.8594,555.375 Q126.7188,555.375 127.5625,555.5781 Q128.4219,555.7656 129.2656,556.1563 L129.2656,558.5469 Q128.4844,557.9844 127.6563,557.7031 Q126.8438,557.4063 126.0469,557.4063 Q125.1719,557.4063 124.6875,557.7656 Q124.2188,558.125 124.2188,558.7813 Q124.2188,559.2969 124.5625,559.6406 Q124.9063,559.9688 126,560.375 L127.0625,560.7813 Q128.5469,561.3281 129.25,562.2344 Q129.9688,563.1406 129.9688,564.5156 Q129.9688,566.3906 128.8594,567.3125 Q127.75,568.2344 125.5,568.2344 Q124.5781,568.2344 123.6563,568.0156 Q122.7344,567.7969 121.875,567.375 L121.875,564.8438 Q122.8438,565.5313 123.7656,565.875 Q124.6875,566.2188 125.5781,566.2188 Q126.4844,566.2188 126.9844,565.8125 Q127.4844,565.3906 127.4844,564.6563 Q127.4844,564.0938 127.1406,563.6875 Q126.8125,563.2656 126.1875,563.0156 L124.9844,562.5625 Z "></path><text fill="#000000" font-family="sans-serif" font-size="12" lengthAdjust="spacingAndGlyphs" textLength="115" x="139.5" y="566.1543">:organizationTemp</text><line style="stroke: #A80036; stroke-width: 1.5;" x1="111.5" x2="256.5" y1="578" y2="578"></line><line style="stroke: #A80036; stroke-width: 1.5;" x1="111.5" x2="256.5" y1="586" y2="586"></line></a><!--class 4--><a target="_top" xlink:actuate="onRequest" xlink:href="http://bigcat.unimaas.nl/organization" xlink:show="new" xlink:title="http://bigcat.unimaas.nl/organization" xlink:type="simple"><rect fill="#FEFECE" filter="url(#fjqz409vfegfa)" height="60.8047" id="4" style="stroke: #A80036; stroke-width: 1.5;" width="113" x="127.5" y="671"></rect><ellipse cx="142.5" cy="687" fill="#FF7700" rx="11" ry="11" style="stroke: #A80036; stroke-width: 1.0;"></ellipse><path d="M141.9844,687.5625 Q140.125,686.8594 139.4688,686.0938 Q138.8281,685.3125 138.8281,684 Q138.8281,682.3125 139.9063,681.3438 Q140.9844,680.375 142.8594,680.375 Q143.7188,680.375 144.5625,680.5781 Q145.4219,680.7656 146.2656,681.1563 L146.2656,683.5469 Q145.4844,682.9844 144.6563,682.7031 Q143.8438,682.4063 143.0469,682.4063 Q142.1719,682.4063 141.6875,682.7656 Q141.2188,683.125 141.2188,683.7813 Q141.2188,684.2969 141.5625,684.6406 Q141.9063,684.9688 143,685.375 L144.0625,685.7813 Q145.5469,686.3281 146.25,687.2344 Q146.9688,688.1406 146.9688,689.5156 Q146.9688,691.3906 145.8594,692.3125 Q144.75,693.2344 142.5,693.2344 Q141.5781,693.2344 140.6563,693.0156 Q139.7344,692.7969 138.875,692.375 L138.875,689.8438 Q139.8438,690.5313 140.7656,690.875 Q141.6875,691.2188 142.5781,691.2188 Q143.4844,691.2188 143.9844,690.8125 Q144.4844,690.3906 144.4844,689.6563 Q144.4844,689.0938 144.1406,688.6875 Q143.8125,688.2656 143.1875,688.0156 L141.9844,687.5625 Z "></path><text fill="#000000" font-family="sans-serif" font-size="12" lengthAdjust="spacingAndGlyphs" textLength="81" x="156.5" y="691.1543">:organization</text><line style="stroke: #A80036; stroke-width: 1.5;" x1="128.5" x2="239.5" y1="703" y2="703"></line></a><a target="_top" xlink:actuate="onRequest" xlink:href="http://www.wikidata.org/prop/direct/P31" xlink:show="new" xlink:title="http://www.wikidata.org/prop/direct/P31" xlink:type="simple"><text fill="#0000FF" font-family="sans-serif" font-size="11" lengthAdjust="spacingAndGlyphs" text-decoration="underline" textLength="45" x="133.5" y="717.2104">wdt:P31</text><line style="stroke: #0000FF; stroke-width: 1.0;" x1="133.5" x2="178.5" y1="719.2104" y2="719.2104"></line></a><text fill="#000000" font-family="sans-serif" font-size="11" lengthAdjust="spacingAndGlyphs" textLength="34" x="182.5" y="717.2104">: IRI +</text><line style="stroke: #A80036; stroke-width: 1.0;" x1="128.5" x2="239.5" y1="723.8047" y2="723.8047"></line><!--link 3 to 4--><path d="M184,594.152 C184,614.037 184,642.9991 184,665.6798 " fill="none" id="3-4" style="stroke: #A80036; stroke-width: 1.0;"></path><polygon fill="#A80036" points="184,670.7114,188,661.7114,184,665.7114,180,661.7114,184,670.7114" style="stroke: #A80036; stroke-width: 1.0;"></polygon><a target="_top" xlink:actuate="onRequest" xlink:href="http://www.wikidata.org/prop/direct/P361" xlink:show="new" xlink:title="http://www.wikidata.org/prop/direct/P361" xlink:type="simple"><text fill="#0000FF" font-family="sans-serif" font-size="13" lengthAdjust="spacingAndGlyphs" text-decoration="underline" textLength="58" x="185" y="637.0669">wdt:P361</text><line style="stroke: #0000FF; stroke-width: 1.0;" x1="185" x2="243" y1="639.0669" y2="639.0669"></line></a><text fill="#000000" font-family="sans-serif" font-size="13" lengthAdjust="spacingAndGlyphs" textLength="7" x="176.2781" y="659.9151">*</text><!--link 2 to 3--><path d="M86.9693,469.197 C75.5029,483.586 70.9715,499.561 81,516 C87.8421,527.215 97.8996,536.158 109.086,543.258 " fill="none" id="2-3" style="stroke: #A80036; stroke-width: 1.0;"></path><polygon fill="#A80036" points="113.595,545.989,107.9684,537.9056,109.318,543.3991,103.8245,544.7488,113.595,545.989" style="stroke: #A80036; stroke-width: 1.0;"></polygon><a target="_top" xlink:actuate="onRequest" xlink:href="http://www.wikidata.org/prop/direct/P108" xlink:show="new" xlink:title="http://www.wikidata.org/prop/direct/P108" xlink:type="simple"><text fill="#0000FF" font-family="sans-serif" font-size="13" lengthAdjust="spacingAndGlyphs" text-decoration="underline" textLength="58" x="82" y="512.0669">wdt:P108</text><line style="stroke: #0000FF; stroke-width: 1.0;" x1="82" x2="140" y1="514.0669" y2="514.0669"></line></a><text fill="#000000" font-family="sans-serif" font-size="13" lengthAdjust="spacingAndGlyphs" textLength="7" x="95.2783" y="538.2409">*</text><!--link 2 to 3--><path d="M181.119,469.049 C180.718,484.369 180.57,500.79 181,516 C181.224,523.934 181.637,532.529 182.087,540.441 " fill="none" id="2-3" style="stroke: #A80036; stroke-width: 1.0;"></path><polygon fill="#A80036" points="182.402,545.793,185.8654,536.5732,182.1077,540.8017,177.8792,537.044,182.402,545.793" style="stroke: #A80036; stroke-width: 1.0;"></polygon><a target="_top" xlink:actuate="onRequest" xlink:href="http://www.wikidata.org/prop/direct/P463" xlink:show="new" xlink:title="http://www.wikidata.org/prop/direct/P463" xlink:type="simple"><text fill="#0000FF" font-family="sans-serif" font-size="13" lengthAdjust="spacingAndGlyphs" text-decoration="underline" textLength="58" x="182" y="512.0669">wdt:P463</text><line style="stroke: #0000FF; stroke-width: 1.0;" x1="182" x2="240" y1="514.0669" y2="514.0669"></line></a><text fill="#000000" font-family="sans-serif" font-size="13" lengthAdjust="spacingAndGlyphs" textLength="7" x="174.0956" y="534.752">*</text><!--link 2 to 3--><path d="M231.698,469.068 C237.153,478.635 241.872,488.762 245,499 C250.081,515.628 240.052,530.67 226.743,542.511 " fill="none" id="2-3" style="stroke: #A80036; stroke-width: 1.0;"></path><polygon fill="#A80036" points="222.912,545.765,232.3617,542.9897,226.7237,542.5291,227.1843,536.891,222.912,545.765" style="stroke: #A80036; stroke-width: 1.0;"></polygon><a target="_top" xlink:actuate="onRequest" xlink:href="http://www.wikidata.org/prop/direct/P1416" xlink:show="new" xlink:title="http://www.wikidata.org/prop/direct/P1416" xlink:type="simple"><text fill="#0000FF" font-family="sans-serif" font-size="13" lengthAdjust="spacingAndGlyphs" text-decoration="underline" textLength="66" x="247" y="512.0669">wdt:P1416</text><line style="stroke: #0000FF; stroke-width: 1.0;" x1="247" x2="313" y1="514.0669" y2="514.0669"></line></a><text fill="#000000" font-family="sans-serif" font-size="13" lengthAdjust="spacingAndGlyphs" textLength="7" x="224.5437" y="535.1127">*</text><!--link 2 to 2--><path d="M311.734,390.192 C332.356,392.698 346.5,398.467 346.5,407.5 C346.5,415.757 334.683,421.287 316.903,424.09 " fill="none" id="2-2" style="stroke: #A80036; stroke-width: 1.0;"></path><polygon fill="#A80036" points="311.734,424.808,321.1991,427.5306,316.6864,424.1195,320.0975,419.6068,311.734,424.808" style="stroke: #A80036; stroke-width: 1.0;"></polygon><a target="_top" xlink:actuate="onRequest" xlink:href="http://www.wikidata.org/prop/direct/P184" xlink:show="new" xlink:title="http://www.wikidata.org/prop/direct/P184" xlink:type="simple"><text fill="#0000FF" font-family="sans-serif" font-size="13" lengthAdjust="spacingAndGlyphs" text-decoration="underline" textLength="58" x="352.5" y="412.0669">wdt:P184</text><line style="stroke: #0000FF; stroke-width: 1.0;" x1="352.5" x2="410.5" y1="414.0669" y2="414.0669"></line></a><text fill="#000000" font-family="sans-serif" font-size="13" lengthAdjust="spacingAndGlyphs" textLength="7" x="319.321" y="422.4394">*</text><!--link 1 to 2--><path d="M184,269.252 C184,291.869 184,317.632 184,340.682 " fill="none" id="1-2" style="stroke: #A80036; stroke-width: 1.0;"></path><polygon fill="#A80036" points="184,345.863,188,336.863,184,340.863,180,336.863,184,345.863" style="stroke: #A80036; stroke-width: 1.0;"></polygon><a target="_top" xlink:actuate="onRequest" xlink:href="http://www.wikidata.org/prop/direct/P50" xlink:show="new" xlink:title="http://www.wikidata.org/prop/direct/P50" xlink:type="simple"><text fill="#0000FF" font-family="sans-serif" font-size="13" lengthAdjust="spacingAndGlyphs" text-decoration="underline" textLength="50" x="185" y="312.0669">wdt:P50</text><line style="stroke: #0000FF; stroke-width: 1.0;" x1="185" x2="235" y1="314.0669" y2="314.0669"></line></a><text fill="#000000" font-family="sans-serif" font-size="13" lengthAdjust="spacingAndGlyphs" textLength="7" x="176.5953" y="334.931">*</text><!--link 0 to 1--><path d="M184,69.356 C184,89.151 184,115.921 184,140.556 " fill="none" id="0-1" style="stroke: #A80036; stroke-width: 1.0;"></path><polygon fill="#A80036" points="184,145.777,188,136.777,184,140.777,180,136.777,184,145.777" style="stroke: #A80036; stroke-width: 1.0;"></polygon><a target="_top" xlink:actuate="onRequest" xlink:href="http://www.wikidata.org/prop/direct/P2860" xlink:show="new" xlink:title="http://www.wikidata.org/prop/direct/P2860" xlink:type="simple"><text fill="#0000FF" font-family="sans-serif" font-size="13" lengthAdjust="spacingAndGlyphs" text-decoration="underline" textLength="66" x="185" y="112.0669">wdt:P2860</text><line style="stroke: #0000FF; stroke-width: 1.0;" x1="185" x2="251" y1="114.0669" y2="114.0669"></line></a><text fill="#000000" font-family="sans-serif" font-size="13" lengthAdjust="spacingAndGlyphs" textLength="7" x="176.5953" y="134.835">*</text><text fill="#888888" font-family="sans-serif" font-size="10" lengthAdjust="spacingAndGlyphs" textLength="67" x="322" y="751.2822">Generated by</text><a target="_top" xlink:actuate="onRequest" xlink:href="http://rdfshape.weso.es" xlink:show="new" xlink:title="http://rdfshape.weso.es" xlink:type="simple"><text fill="#0000FF" font-family="sans-serif" font-size="10" lengthAdjust="spacingAndGlyphs" text-decoration="underline" textLength="43" x="392" y="751.2822">rdfshape</text><line style="stroke: #0000FF; stroke-width: 1.0;" x1="392" x2="435" y1="753.2822" y2="753.2822"></line></a><!--
@startuml
class ":citing_work" as 0 <<(S,#FF7700)>> [[http://bigcat.unimaas.nl/citing_work :citing_work]] {
[[http://www.wikidata.org/prop/direct/P577 wdt:P577]] : [[http://www.w3.org/1999/02/22-rdf-syntax-ns#dateTime rdf:dateTime]]  OR [[http://www.w3.org/2001/XMLSchema#dateTime xsd:dateTime]]  *
- -
}
class ":work" as 1 <<(S,#FF7700)>> [[http://bigcat.unimaas.nl/work :work]] {
[[http://www.wikidata.org/prop/direct/P31 wdt:P31]] : IRI +
- -
[[http://www.wikidata.org/prop/direct/P921 wdt:P921]] : IRI *
- -
[[http://www.wikidata.org/prop/direct/P1104 wdt:P1104]] : [[http://www.w3.org/1999/02/22-rdf-syntax-ns#langString rdf:langString]]  OR [[http://www.w3.org/2001/XMLSchema#string xsd:string]]  OR [[http://www.w3.org/2001/XMLSchema#decimal xsd:decimal]]  *
- -
[[http://www.wikidata.org/prop/direct/P577 wdt:P577]] : [[http://www.w3.org/1999/02/22-rdf-syntax-ns#dateTime rdf:dateTime]]  OR [[http://www.w3.org/2001/XMLSchema#dateTime xsd:dateTime]]  *
- -
}
class ":researcher" as 2 <<(S,#FF7700)>> [[http://bigcat.unimaas.nl/researcher :researcher]] {
[[http://www.w3.org/2000/01/rdf-schema#label rdfs:label]] : [[http://www.w3.org/1999/02/22-rdf-syntax-ns#langString rdf:langString]]  OR [[http://www.w3.org/2001/XMLSchema#string xsd:string]]  *
- -
[[http://www.wikidata.org/prop/direct/P496 wdt:P496]] : [[http://www.w3.org/1999/02/22-rdf-syntax-ns#langString rdf:langString]]  OR [[http://www.w3.org/2001/XMLSchema#string xsd:string]]  *
- -
[[http://www.wikidata.org/prop/direct/P166 wdt:P166]] : IRI *
- -
[[http://www.wikidata.org/prop/direct/P21 wdt:P21]] : IRI *
- -
}
class ":organizationTemp" as 3 <<(S,#FF7700)>> [[http://bigcat.unimaas.nl/organizationTemp :organizationTemp]] {
}
class ":organization" as 4 <<(S,#FF7700)>> [[http://bigcat.unimaas.nl/organization :organization]] {
[[http://www.wikidata.org/prop/direct/P31 wdt:P31]] : IRI +
- -
}
3 - -> "*" 4 : [[http://www.wikidata.org/prop/direct/P361 wdt:P361]]
2 - -> "*" 3 : [[http://www.wikidata.org/prop/direct/P108 wdt:P108]]
2 - -> "*" 3 : [[http://www.wikidata.org/prop/direct/P463 wdt:P463]]
2 - -> "*" 3 : [[http://www.wikidata.org/prop/direct/P1416 wdt:P1416]]
2 - -> "*" 2 : [[http://www.wikidata.org/prop/direct/P184 wdt:P184]]
1 - -> "*" 2 : [[http://www.wikidata.org/prop/direct/P50 wdt:P50]]
0 - -> "*" 1 : [[http://www.wikidata.org/prop/direct/P2860 wdt:P2860]]

right footer Generated by [[http://rdfshape.weso.es rdfshape]]
@enduml

PlantUML version 1.2017.12(Wed Apr 26 18:06:36 CEST 2017)
(GPL source distribution)
Java Runtime: Java(TM) SE Runtime Environment
JVM: Java HotSpot(TM) 64-Bit Server VM
Java Version: 12.0.2+10
Operating System: Linux
OS Version: 4.4.0-193-generic
Default Encoding: UTF-8
Language: es
Country: ES
--></g></svg>